<?xml version="1.0" standalone="no"?>
<!DOCTYPE svg PUBLIC "-//W3C//DTD SVG 20010904//EN"
 "http://www.w3.org/TR/2001/REC-SVG-20010904/DTD/svg10.dtd">
<svg version="1.0" xmlns="http://www.w3.org/2000/svg"
 width="1200.000000pt" height="1200.000000pt" viewBox="0 0 1200.000000 1200.000000"
 preserveAspectRatio="xMidYMid meet">

<g transform="translate(0.000000,1200.000000) scale(0.100000,-0.100000)"
fill="#000000" stroke="none">
<path d="M4185 10855 c-482 -74 -877 -321 -1138 -713 -150 -227 -246 -509
-263 -780 l-7 -102 664 -1 c365 0 682 -4 704 -8 l40 -8 -50 -7 c-212 -32 -452
-127 -640 -255 -356 -240 -587 -585 -686 -1026 -23 -99 -23 -109 -26 -1004 -3
-734 -2 -906 9 -912 7 -5 588 -9 1290 -9 762 0 1279 -4 1282 -9 4 -5 7 -65 8
-133 l1 -123 -579 -6 c-605 -5 -633 -7 -817 -55 -137 -35 -328 -119 -455 -200
-401 -256 -680 -704 -731 -1176 -7 -61 -11 -431 -11 -992 0 -969 2 -1018 55
-1214 102 -378 338 -707 665 -924 241 -161 470 -240 775 -268 150 -14 3311
-14 3460 0 395 37 718 180 986 438 247 237 406 518 477 847 26 119 25 537 -2
650 -144 622 -586 1079 -1190 1235 -44 11 -90 20 -102 20 -29 0 -54 10 -54 21
0 5 290 9 685 9 l685 0 0 93 c0 200 -87 512 -190 679 -17 27 -30 50 -30 52 0
14 -121 176 -188 251 -214 242 -527 426 -843 493 -169 37 -273 42 -818 42
l-530 0 -22 -32 c-21 -29 -30 -61 -46 -158 -3 -19 -10 -41 -16 -48 -10 -13
-16 -97 -18 -271 0 -29 5 -67 12 -83 10 -24 10 -31 0 -38 -10 -6 -10 -13 3
-31 31 -48 45 -139 42 -264 l-3 -120 39 -80 c21 -44 54 -96 72 -115 39 -42 70
-90 62 -97 -11 -11 -213 19 -255 39 -29 13 -46 16 -51 9 -3 -6 -17 -10 -31 -9
-13 1 -145 2 -294 2 -299 1 -299 1 -289 17 4 7 0 9 -12 5 -11 -3 -29 3 -44 14
-24 19 -24 20 -4 20 11 0 29 10 40 22 19 21 19 21 -1 14 -34 -13 -75 -19 -75
-11 0 4 9 18 20 32 31 40 23 52 -10 15 -29 -32 -30 -32 -30 -8 0 13 -3 32 -7
41 -5 15 -1 16 24 11 22 -5 38 -1 66 19 21 13 49 28 62 31 14 3 33 16 43 28
24 31 69 59 82 51 5 -3 25 8 42 24 18 17 38 29 45 27 7 -3 25 15 40 39 15 24
33 43 40 40 6 -2 17 3 24 11 9 11 26 15 56 12 42 -3 54 7 33 28 -6 6 3 20 27
39 23 18 38 24 41 17 5 -17 42 -15 42 3 0 7 -6 18 -14 22 -27 16 -44 193 -20
201 5 1 22 -2 37 -7 22 -8 26 -15 22 -33 -4 -18 0 -26 22 -35 33 -16 63 -17
63 -3 0 6 -10 14 -22 19 -17 6 -22 17 -24 54 -3 46 -3 46 22 37 32 -12 34 -12
34 0 0 6 -11 10 -24 10 -32 0 -37 9 -29 54 l6 38 19 -31 c24 -37 30 -39 27 -8
-5 43 14 173 31 219 14 37 16 56 8 85 -22 87 -23 81 14 88 43 8 81 67 66 104
-5 14 -8 45 -6 69 2 40 -2 48 -32 73 -18 16 -37 26 -42 23 -14 -9 -9 -34 7
-34 23 0 18 -16 -10 -34 -32 -21 -35 -20 -35 7 0 13 -5 28 -11 34 -17 17 -3
47 17 39 14 -6 16 -1 10 35 -6 35 -3 46 16 66 19 20 20 27 10 43 -7 12 -8 20
-2 20 5 0 10 5 10 10 0 7 -6 7 -20 0 -15 -8 -21 -6 -30 10 -16 30 -3 58 28 62
19 2 27 9 28 23 1 11 5 29 9 39 6 15 3 23 -13 34 -27 18 -29 35 -3 27 17 -5
21 0 26 32 3 21 11 58 16 82 7 30 7 47 0 54 -14 14 -14 47 -1 47 6 0 10 20 10
45 0 33 -4 45 -14 45 -8 0 -18 -5 -21 -10 -4 -6 -10 -8 -14 -5 -10 5 -24 63
-22 85 2 13 1 13 -8 0 -8 -12 -11 -11 -17 5 -4 11 -9 24 -12 29 -3 5 0 6 5 3
6 -4 23 -1 38 7 17 9 34 11 44 6 28 -13 91 -40 97 -40 9 0 -4 82 -15 93 -6 6
-11 19 -11 29 0 10 -7 21 -15 24 -28 11 -16 26 15 19 23 -5 30 -3 30 9 0 8 -4
17 -9 21 -6 3 -10 52 -10 109 0 56 -3 110 -7 120 -4 11 0 22 12 31 17 12 17
17 6 47 -16 46 -15 55 7 61 38 10 72 -60 42 -86 -9 -8 -24 -17 -33 -20 -10 -4
-18 -12 -18 -19 2 -32 28 -112 38 -116 7 -2 12 -13 13 -25 1 -20 2 -20 9 3 l7
25 12 -28 c6 -16 11 -35 11 -44 0 -13 -2 -13 -16 -2 -14 11 -16 11 -13 -4 7
-34 33 -15 52 38 2 6 11 4 21 -4 21 -17 27 -12 19 17 -3 13 -18 29 -34 38 -18
9 -29 23 -30 37 l0 22 -10 -23 c-11 -28 -22 -23 -39 19 -12 27 -11 33 2 43 8
6 20 21 27 34 6 12 18 22 26 22 8 0 21 12 29 28 l15 27 1 -34 c0 -25 -3 -32
-15 -27 -12 4 -15 -3 -15 -29 0 -19 0 -38 -1 -42 -2 -19 19 -11 24 9 5 18 9
20 19 10 21 -21 30 -13 23 18 -4 19 -3 30 4 30 6 0 11 -4 11 -9 0 -5 7 -11 15
-14 11 -5 13 1 9 26 -9 48 -34 96 -83 156 -38 46 -46 51 -52 35 -3 -11 0 -28
7 -39 18 -25 18 -65 0 -65 -16 0 -26 30 -26 78 0 38 -26 55 -45 29 -11 -15
-13 -15 -30 1 -17 16 -17 16 -11 -1 3 -10 6 -25 6 -33 0 -7 6 -11 14 -8 18 7
26 -7 19 -34 -6 -26 -23 -29 -23 -4 -1 16 -1 16 -11 0 -10 -19 -39 -25 -39 -9
0 5 -3 17 -6 25 -5 12 -2 15 10 10 20 -8 20 8 1 46 -16 31 -52 43 -41 15 5
-13 2 -14 -15 -4 -12 6 -19 18 -16 28 4 18 -8 33 -35 44 -10 3 -18 11 -18 17
0 8 -11 9 -29 5 -16 -3 -46 -2 -66 4 l-37 10 6 -31 c7 -36 17 -49 23 -30 3 6
11 12 18 12 22 0 7 -108 -21 -149 -25 -37 -23 -61 6 -54 22 6 37 -15 16 -23
-9 -3 -16 -14 -16 -24 0 -11 -4 -22 -10 -25 -5 -3 -10 0 -10 7 0 9 -3 9 -10
-2 -12 -19 -13 -77 -1 -85 5 -3 12 3 14 12 3 10 3 -4 0 -32 -2 -27 -10 -55
-18 -61 -20 -15 -35 -59 -35 -104 0 -21 -4 -41 -8 -44 -5 -3 -14 -38 -21 -78
-17 -92 -40 -170 -51 -163 -4 2 -10 -18 -14 -46 -4 -28 -13 -52 -20 -55 -8 -3
-17 -21 -20 -39 -4 -19 -11 -37 -17 -40 -6 -4 -8 2 -4 17 5 19 2 23 -20 24
-16 1 -25 -3 -25 -13 0 -8 5 -11 10 -8 6 3 10 -1 10 -10 0 -11 -6 -14 -25 -9
-16 4 -25 2 -25 -6 0 -7 7 -10 15 -6 9 3 18 -1 21 -9 5 -11 11 -12 25 -5 21
12 20 6 -27 -95 -12 -27 -26 -62 -29 -77 -4 -15 -13 -32 -21 -39 -8 -6 -14
-17 -14 -24 0 -17 -48 -112 -60 -120 -12 -8 -40 -65 -40 -84 0 -9 -7 -25 -15
-35 -8 -11 -15 -28 -15 -38 0 -10 -18 -54 -40 -97 -22 -43 -40 -81 -40 -84 0
-16 -121 -259 -127 -254 -3 4 8 35 26 70 18 35 35 84 38 108 3 24 11 50 17 58
6 8 12 26 13 40 1 14 6 46 12 71 12 56 5 96 -15 79 -11 -9 -15 -8 -20 5 -3 9
-10 13 -16 10 -5 -4 -5 -11 1 -18 17 -20 1 -26 -24 -10 -12 8 -30 12 -39 8
-19 -7 -46 12 -46 34 0 8 -8 21 -17 28 -27 20 6 18 35 -2 24 -16 42 -12 42 11
0 7 9 17 20 20 11 3 20 10 20 15 0 5 9 12 21 15 11 4 18 12 16 18 -2 6 5 19
15 29 10 10 18 24 18 31 0 8 18 20 40 27 47 16 79 45 57 53 -8 3 -20 1 -28 -4
-23 -14 -39 -10 -39 11 0 10 -6 23 -13 27 -27 16 -56 70 -50 91 3 14 1 22 -7
22 -8 0 -4 8 8 18 11 10 23 35 27 55 4 20 11 40 16 43 5 3 9 13 9 22 0 10 9
23 20 30 22 13 28 44 8 37 -18 -7 -47 15 -30 22 29 12 -3 83 -39 83 -10 0 -19
6 -19 14 0 7 -7 19 -16 27 -8 7 -13 21 -11 31 3 10 1 16 -4 12 -5 -3 -9 2 -9
10 0 19 21 21 38 4 6 -6 15 -9 19 -5 4 4 -9 24 -29 45 -19 20 -44 51 -56 67
-11 17 -48 59 -81 95 -34 35 -61 72 -61 82 0 9 -4 19 -9 22 -5 3 -7 23 -4 44
4 27 1 42 -11 51 -18 15 -22 51 -6 51 6 0 10 5 10 11 0 19 -73 109 -87 109 -7
0 -31 11 -53 25 -22 14 -57 32 -79 41 -26 10 -41 23 -45 40 -4 15 -14 24 -26
24 -47 0 -67 20 -73 72 -7 59 -11 65 -31 49 -11 -9 -17 -8 -30 5 -23 22 -15
39 18 39 23 0 30 6 41 40 8 21 12 41 10 44 -3 2 -5 1 -5 -3 0 -3 -14 1 -31 9
-17 9 -37 14 -45 11 -9 -3 -26 5 -40 19 -27 27 -44 32 -44 13 -1 -13 -30 20
-30 33 0 16 38 15 59 -2 14 -12 35 -17 59 -15 25 2 41 -2 50 -13 10 -13 10
-11 2 12 -13 38 12 37 41 -2 15 -20 27 -27 42 -24 22 4 22 4 0 -13 -13 -9 -23
-22 -23 -28 0 -6 -9 -19 -20 -29 -28 -24 -27 -50 3 -41 27 8 28 9 31 26 3 24
17 38 36 38 10 0 25 9 33 20 13 18 16 19 27 5 7 -8 18 -15 25 -15 15 0 75 -57
75 -70 0 -5 -5 -10 -11 -12 -6 -2 5 -15 25 -28 30 -21 96 -106 96 -125 0 -8
-40 -6 -40 3 0 4 -7 15 -14 24 -12 17 -16 17 -45 2 -46 -23 -42 -41 14 -56 5
-2 20 -13 34 -25 13 -13 30 -23 37 -23 17 0 18 -17 2 -23 -8 -2 -1 -10 15 -17
31 -15 36 -36 10 -43 -11 -3 -8 -5 9 -6 16 -1 31 6 37 16 7 14 12 15 24 5 10
-9 17 -10 22 -2 9 15 52 12 59 -5 3 -8 15 -15 26 -15 11 0 20 -7 20 -15 0 -18
16 -20 26 -3 5 7 -9 26 -34 49 -35 31 -40 39 -28 48 12 10 18 7 31 -13 15 -22
22 -25 54 -20 33 5 38 3 48 -23 l11 -28 1 26 c1 28 36 48 44 25 3 -8 8 -7 18
2 12 11 12 15 -2 22 -11 6 -14 19 -11 40 5 34 22 41 22 9 0 -18 5 -21 30 -17
38 6 39 -7 3 -21 l-28 -11 27 4 c30 3 44 -17 32 -48 -7 -19 16 -22 34 -4 9 9
13 7 18 -5 6 -17 29 -23 37 -9 2 4 2 2 1 -5 -4 -16 44 -46 62 -39 12 5 14 1 8
-17 -9 -30 -28 -41 -33 -19 -4 18 -41 48 -55 44 -4 -1 -14 2 -22 9 -20 16 -28
-10 -14 -47 7 -16 13 -49 16 -73 2 -25 9 -48 15 -52 7 -4 8 -12 4 -18 -3 -7
-1 -35 6 -62 12 -45 11 -54 -4 -81 -9 -16 -17 -35 -16 -41 0 -7 4 -3 9 8 7 17
9 14 11 -15 1 -19 2 -42 1 -50 -1 -8 1 -22 4 -30 5 -13 7 -12 15 3 14 24 29
21 29 -5 1 -37 16 0 23 55 4 26 14 61 23 78 8 17 13 33 10 36 -2 3 -14 -18
-26 -45 -12 -28 -28 -53 -36 -56 -16 -6 -19 15 -5 42 5 9 14 40 20 67 7 28 20
73 31 100 10 28 23 70 30 95 6 25 16 59 21 76 5 17 9 46 9 66 0 22 7 41 20 53
22 20 29 55 8 38 -7 -6 -20 -10 -28 -10 -8 -1 -23 -4 -32 -8 -10 -4 -18 -3
-18 1 1 16 49 64 63 64 8 0 22 11 31 25 9 14 26 25 37 25 19 0 20 4 14 50 -6
42 -4 50 9 50 20 0 21 28 0 51 -14 15 -13 19 11 43 14 14 35 26 45 26 30 0 26
44 -5 64 -20 13 -29 14 -44 4 -15 -9 -22 -8 -36 6 -19 19 -13 46 10 46 8 0 15
5 15 10 0 6 7 10 16 10 14 0 14 2 0 22 -23 32 -20 48 8 48 42 0 73 -17 85 -47
6 -15 15 -35 20 -43 5 -8 14 -28 20 -43 6 -15 16 -25 21 -22 6 3 10 -1 10 -9
0 -30 61 -73 122 -86 43 -10 64 -20 75 -37 19 -28 56 -28 61 1 3 11 10 26 18
34 8 7 14 33 14 57 0 31 9 59 30 95 17 28 30 63 30 78 0 21 3 23 10 12 5 -8
12 -11 16 -7 13 13 -27 45 -74 58 -30 8 -60 26 -85 51 -26 27 -44 37 -56 33
-10 -3 -24 1 -31 10 -7 8 -19 15 -27 15 -12 0 -13 3 -4 13 7 9 8 24 1 46 -8
29 -6 33 15 41 14 5 58 8 99 7 59 -2 72 0 64 10 -6 7 -19 13 -29 13 -19 0 -56
43 -83 95 -15 28 -14 30 4 37 25 9 25 19 1 44 -21 23 -36 62 -32 82 1 8 -4 20
-11 29 -17 20 -17 131 0 138 6 2 12 -2 12 -11 0 -8 12 -19 26 -24 17 -7 24
-15 20 -26 -4 -10 0 -14 12 -12 11 2 18 -4 20 -17 3 -23 59 -60 65 -42 2 6 -3
18 -10 26 -53 61 -96 135 -114 196 -32 106 -97 235 -120 235 -11 0 -19 6 -19
13 0 6 -3 22 -6 35 -6 21 -4 23 22 20 20 -2 29 2 32 15 2 10 -3 17 -11 17 -8
0 -20 7 -27 15 -16 19 -30 19 -30 0 0 -9 -6 -12 -16 -8 -12 4 -15 0 -12 -18 3
-24 -2 -26 -36 -13 -15 6 -17 4 -11 -14 4 -15 2 -22 -7 -22 -7 0 -2 -7 10 -16
18 -12 26 -13 37 -4 17 14 36 5 29 -14 -4 -10 -23 -13 -67 -11 -71 2 -117 -4
-117 -16 0 -4 19 -9 43 -11 23 -2 41 -7 39 -13 -5 -17 -95 -5 -113 16 -9 10
-26 19 -37 19 -19 0 -20 -6 -20 -77 0 -100 1 -98 -17 -83 -12 10 -18 10 -29 1
-11 -9 -16 -9 -21 -1 -5 8 -20 9 -42 5 -45 -8 -67 8 -52 38 l11 20 17 -20 c17
-22 91 -41 91 -24 0 6 7 8 15 5 18 -7 18 -8 5 36 -7 24 -6 36 1 41 8 5 8 13
-1 28 -6 12 -8 31 -5 42 4 12 -1 31 -11 47 -10 15 -19 29 -20 32 0 3 -6 18
-12 33 -7 16 -12 35 -12 43 0 21 -17 17 -23 -6 -3 -11 -12 -20 -21 -20 -21 0
-21 -19 0 -27 9 -3 15 -16 14 -32 -3 -47 0 -61 14 -61 10 0 12 7 8 22 -5 22
-5 22 19 7 32 -22 37 -49 9 -49 -16 0 -20 -5 -18 -21 8 -52 -72 -46 -92 7 -8
20 -13 24 -23 16 -9 -8 -23 -7 -49 1 -45 16 -68 35 -68 57 0 10 -7 23 -15 30
-12 10 -15 10 -15 -3 0 -9 -8 -23 -17 -32 -16 -16 -18 -16 -33 3 -19 23 -100
36 -100 15 0 -7 -4 -13 -10 -13 -5 0 -10 -4 -10 -9 0 -10 47 -8 73 4 25 10 31
1 16 -24 -16 -24 -5 -39 16 -21 9 8 15 8 15 2 0 -6 9 -14 20 -17 20 -6 28 -25
11 -25 -5 0 -22 -5 -38 -11 l-28 -12 25 -7 c21 -7 19 -8 -16 -9 -43 -1 -150
26 -140 36 3 4 26 5 51 5 54 -3 60 13 8 21 -56 9 -124 -1 -145 -20 -18 -16
-20 -16 -43 11 -26 30 -25 46 3 46 9 0 26 7 37 16 15 11 17 18 9 32 -6 9 -8
29 -3 44 7 28 3 38 -16 38 -11 0 -58 -63 -98 -134 -10 -17 -33 -43 -50 -58
-27 -22 -30 -30 -21 -45 8 -13 8 -23 -2 -38 -7 -11 -14 -47 -16 -80 -2 -51 0
-60 15 -63 12 -3 22 8 34 35 l16 38 11 -35 c7 -19 22 -57 35 -85 21 -43 25
-65 25 -163 1 -63 -2 -116 -7 -119 -4 -2 -2 -13 4 -24 8 -16 7 -25 -6 -39 -9
-10 -16 -27 -14 -37 1 -10 -2 -27 -6 -37 -6 -13 -4 -21 3 -24 17 -5 15 -44 -3
-68 -8 -10 -15 -28 -15 -38 0 -11 -3 -17 -6 -13 -4 3 -13 -1 -21 -9 -14 -13
-14 -16 2 -28 15 -11 15 -13 1 -25 -28 -24 -18 -33 27 -26 51 9 53 11 38 29
-16 19 -3 25 48 22 25 -2 44 1 47 8 2 6 23 12 46 13 23 2 45 8 48 13 4 7 18 8
34 4 35 -8 129 23 163 54 34 32 40 20 11 -20 -23 -31 -28 -75 -7 -63 5 4 9 0
9 -9 0 -8 -6 -17 -12 -20 -17 -7 19 -36 45 -36 13 0 17 -5 13 -16 -7 -19 33
-96 48 -91 16 5 20 47 5 47 -8 0 -6 6 4 18 19 21 22 67 5 78 -6 4 -16 0 -23
-9 -16 -22 -23 -13 -17 18 3 20 7 23 18 14 21 -17 18 30 -3 53 -14 15 -15 23
-6 37 9 15 7 28 -12 65 -18 35 -20 46 -9 46 8 0 14 9 14 19 0 23 18 37 31 24
5 -5 11 -29 13 -53 3 -25 12 -89 20 -144 11 -70 12 -104 5 -118 -6 -10 -12
-41 -14 -68 -5 -73 -46 -105 -101 -78 -17 8 -29 5 -58 -14 -44 -29 -45 -36 -3
-33 17 1 40 -1 49 -6 9 -5 36 -11 59 -13 40 -3 70 -26 35 -26 -9 0 -16 -4 -16
-10 0 -5 11 -10 25 -10 14 0 25 5 25 12 0 9 3 8 13 -1 10 -11 10 -14 0 -18
-22 -8 -14 -33 12 -43 29 -11 31 -17 10 -40 -9 -10 -18 -46 -22 -84 -6 -62
-23 -94 -23 -42 0 14 -5 28 -11 31 -7 5 -6 14 4 28 18 29 11 47 -19 47 -15 0
-24 6 -24 15 0 22 -27 18 -44 -7 -14 -20 -14 -23 4 -35 10 -7 27 -10 37 -6 16
6 16 5 4 -11 -10 -12 -22 -15 -38 -11 -22 5 -23 4 -13 -15 17 -31 -3 -24 -29
11 -14 19 -28 28 -38 25 -17 -7 -46 7 -76 37 -15 15 -22 34 -22 62 0 26 -4 40
-12 39 -7 -1 -25 -2 -40 -2 -21 -2 -24 -5 -15 -14 17 -17 15 -28 -7 -28 -10 0
-32 15 -49 34 -17 19 -32 33 -34 32 -1 -2 -18 -6 -35 -9 -41 -8 -44 10 -6 47
14 14 23 29 20 33 -11 10 -54 -17 -68 -44 -11 -21 -15 -22 -24 -10 -12 17 -84
27 -86 12 -1 -6 14 -18 33 -27 20 -9 46 -30 59 -45 14 -16 32 -32 42 -36 9 -3
17 -16 17 -27 0 -24 -4 -25 -24 -4 -9 8 -20 12 -26 9 -13 -8 -13 -45 0 -45 13
0 13 -11 0 -30 -9 -12 -16 -8 -45 25 -19 22 -35 48 -35 58 0 11 -7 33 -16 50
-32 61 -34 66 -24 72 6 4 9 14 8 23 -2 10 5 18 17 20 11 2 26 11 33 20 7 9 12
11 12 4 0 -7 5 -12 10 -12 6 0 10 11 10 24 0 16 7 26 22 30 18 4 20 8 10 18
-17 17 -15 25 8 31 11 3 20 12 20 20 0 20 -37 32 -54 18 -8 -6 -22 -8 -31 -4
-15 5 -17 3 -12 -11 4 -10 7 -22 7 -28 0 -6 7 -8 15 -4 25 9 16 -18 -15 -42
-41 -32 -68 -18 -62 32 2 20 1 36 -2 36 -15 0 -56 -33 -56 -45 0 -23 -27 -36
-79 -38 -28 -1 -51 -5 -51 -9 0 -5 -9 -8 -20 -8 -33 0 -12 27 28 37 27 6 37
15 43 36 7 26 5 27 -34 34 -23 3 -36 8 -29 11 14 4 16 32 2 32 -6 0 -9 6 -8
12 2 7 -12 19 -29 27 -18 8 -33 18 -33 23 0 4 15 14 33 22 31 14 31 14 6 15
-15 1 -37 9 -50 19 -13 10 -32 21 -41 25 -27 10 -21 25 12 32 34 7 31 25 -4
25 -16 0 -28 11 -42 38 -10 20 -27 43 -36 50 -10 7 -18 22 -18 33 0 11 -12 42
-27 71 -26 49 -26 52 -10 79 15 28 15 29 -4 29 -25 0 -36 27 -21 51 7 10 12
28 12 39 0 12 8 37 19 58 26 52 35 97 32 172 -3 76 21 200 43 232 9 12 16 32
16 43 0 27 66 161 102 207 18 24 27 45 24 56 -8 25 62 100 76 81 7 -11 8 -9 4
5 -12 35 116 138 252 205 166 82 307 114 502 113 307 0 612 -121 798 -315 34
-36 62 -70 62 -75 0 -5 26 -36 58 -69 32 -34 66 -77 76 -96 9 -20 32 -60 51
-89 43 -65 98 -205 125 -318 11 -47 27 -90 35 -96 14 -11 13 -15 -9 -40 -21
-24 -27 -26 -35 -15 -8 12 -12 12 -25 2 -11 -9 -16 -10 -16 -2 0 17 -30 13
-37 -5 -3 -8 -1 -20 6 -27 6 -6 11 -36 11 -67 0 -31 5 -61 10 -66 8 -8 6 -15
-5 -24 -12 -10 -15 -10 -15 4 0 9 -20 36 -45 60 -50 49 -59 44 -19 -9 17 -23
26 -48 27 -78 2 -38 5 -43 21 -39 15 4 17 1 11 -19 -11 -34 -33 -77 -44 -84
-6 -3 -7 -13 -4 -23 6 -14 4 -15 -8 -5 -8 7 -25 10 -37 6 -19 -4 -22 -1 -22
21 0 16 -6 26 -14 26 -23 0 -27 -29 -6 -42 11 -7 20 -18 20 -24 0 -6 -30 -34
-67 -63 -58 -44 -69 -49 -79 -36 -12 17 -34 20 -34 6 0 -6 4 -13 10 -16 5 -3
20 -28 31 -56 12 -27 28 -49 35 -49 26 0 149 44 177 63 32 22 47 15 29 -13
-15 -25 -15 -30 1 -30 15 0 46 39 74 95 15 29 18 46 12 63 -6 16 -4 30 7 48
23 35 3 30 -40 -11 -21 -19 -42 -33 -47 -30 -12 8 14 45 56 78 19 15 35 34 35
41 0 8 7 19 15 26 9 7 14 18 12 25 -3 6 4 29 15 50 11 22 21 58 22 80 1 34 4
39 21 36 11 -2 34 -4 51 -4 26 -1 33 -7 47 -41 21 -50 21 -60 3 -89 -24 -38
-43 -108 -60 -221 -18 -123 -52 -230 -91 -285 -24 -35 -25 -43 -19 -112 7 -67
6 -73 -9 -61 -20 17 -37 7 -37 -22 0 -33 12 -40 27 -14 17 32 17 2 0 -54 -8
-24 -21 -68 -31 -99 -9 -31 -23 -62 -31 -69 -7 -6 -17 -25 -20 -41 -7 -30 -20
-38 -28 -16 -4 8 -6 7 -6 -3 -1 -9 4 -21 10 -27 8 -8 3 -26 -15 -65 -14 -30
-26 -61 -26 -69 0 -12 -2 -12 -9 0 -10 16 -13 8 -26 -71 -7 -42 -8 -43 -36
-28 -16 9 -19 7 -19 -12 0 -13 -6 -32 -13 -43 -8 -11 -19 -33 -24 -50 -6 -16
-14 -38 -18 -47 -5 -13 -2 -18 9 -18 20 0 36 31 29 58 -4 16 -1 22 12 22 15 0
16 -7 10 -52 -4 -29 -11 -61 -16 -70 -5 -9 -9 -34 -9 -55 -1 -21 -7 -56 -15
-78 -8 -22 -15 -58 -15 -80 0 -23 -5 -46 -12 -53 -6 -6 -13 -38 -15 -69 -2
-32 -8 -59 -13 -61 -6 -2 -10 -17 -10 -33 0 -16 -4 -29 -9 -29 -5 0 -12 -19
-16 -42 -17 -110 -72 -261 -92 -253 -18 6 -30 -25 -14 -34 14 -9 6 -54 -16
-88 -8 -12 -13 -34 -11 -50 l3 -28 1255 0 1255 0 3 803 c1 441 -1 802 -5 802
-5 0 -307 1 -673 2 -366 1 -676 4 -690 8 -20 5 -10 9 45 19 653 120 1162 613
1302 1263 26 119 26 526 0 645 -104 481 -409 886 -837 1106 -152 79 -293 128
-475 164 -84 16 -203 18 -1850 19 -1445 2 -1776 0 -1850 -11z m2362 -1901 c7
-7 13 -15 13 -18 0 -9 -83 19 -87 30 -5 15 58 5 74 -12z m-965 -26 c-11 -11
-52 -2 -52 11 0 4 14 6 31 3 20 -3 27 -8 21 -14z m158 -28 c8 -5 12 -12 8 -15
-8 -8 -58 5 -58 16 0 12 31 11 50 -1z m120 -14 c0 -3 -4 -8 -10 -11 -5 -3 -10
-1 -10 4 0 6 5 11 10 11 6 0 10 -2 10 -4z m45 -6 c3 -5 -1 -10 -9 -10 -9 0
-16 5 -16 10 0 6 4 10 9 10 6 0 13 -4 16 -10z m-302 -7 c-14 -3 -23 -12 -23
-22 0 -13 -8 -18 -32 -19 -29 0 -30 1 -10 9 12 4 22 15 22 24 0 11 9 15 33 14
23 -1 26 -3 10 -6z m985 -17 c3 -12 -1 -17 -10 -14 -7 3 -15 13 -16 22 -3 12
1 17 10 14 7 -3 15 -13 16 -22z m-725 -13 c-7 -2 -19 -2 -25 0 -7 3 -2 5 12 5
14 0 19 -2 13 -5z m-327 -55 c6 -10 -20 -38 -37 -38 -4 0 -9 11 -11 25 -4 21
-1 25 18 25 12 0 26 -5 30 -12z m614 -3 c-7 -8 -14 -15 -15 -15 -2 0 -5 7 -9
15 -4 10 1 15 16 15 17 0 18 -2 8 -15z m122 -25 c3 -16 2 -30 -2 -30 -12 0
-30 24 -30 42 0 30 27 20 32 -12z m1065 -12 c15 -56 3 -67 -40 -38 l-35 24 21
28 c29 39 41 35 54 -14z m-1120 6 c-9 -9 -28 6 -21 18 4 6 10 6 17 -1 6 -6 8
-13 4 -17z m-69 -46 c10 -24 8 -29 -16 -47 -15 -11 -21 -21 -14 -21 6 0 13
-12 13 -27 1 -22 2 -23 6 -8 3 11 9 22 13 25 4 3 16 23 25 45 l18 40 7 -36 c3
-20 16 -50 28 -66 12 -17 22 -38 22 -47 0 -20 19 -21 26 -2 3 8 13 12 22 9 18
-4 39 -52 49 -108 5 -28 4 -29 -10 -10 -12 16 -17 17 -30 6 -13 -10 -19 -9
-34 8 -10 12 -20 31 -23 44 -3 12 -12 22 -20 22 -8 0 -19 10 -25 23 -5 12 -15
22 -21 22 -17 0 -25 -40 -13 -62 8 -14 5 -25 -10 -46 -13 -19 -17 -33 -10 -43
5 -7 9 -25 9 -39 -1 -24 -1 -25 -16 -5 -8 11 -13 28 -11 37 3 9 1 18 -3 20 -5
2 -5 21 -1 43 13 81 -7 112 -35 53 l-15 -33 5 49 c4 27 6 71 6 97 0 35 4 49
14 49 17 0 29 27 20 43 -5 8 -4 9 3 2 5 -5 14 -22 21 -37z m-598 1 c0 -12 -27
-11 -35 1 -11 17 5 32 21 19 8 -6 14 -15 14 -20z m695 11 c3 -5 -1 -10 -10
-10 -9 0 -13 5 -10 10 3 6 8 10 10 10 2 0 7 -4 10 -10z m45 -10 c0 -5 -4 -10
-10 -10 -5 0 -10 5 -10 10 0 6 5 10 10 10 6 0 10 -4 10 -10z m-26 -45 c-5 -13
-34 -30 -34 -19 0 3 5 14 11 25 11 22 31 17 23 -6z m1091 -22 c3 -13 2 -23 -3
-23 -17 0 -34 29 -28 47 8 19 21 9 31 -24z m-1298 -219 c-9 -9 -28 6 -21 18 4
6 10 6 17 -1 6 -6 8 -13 4 -17z m223 0 c0 -8 -5 -12 -10 -9 -6 4 -8 11 -5 16
9 14 15 11 15 -7z m-1419 -14 c-3 -8 -4 -38 -3 -67 3 -60 -9 -72 -40 -41 -14
14 -17 23 -10 26 15 5 16 32 2 32 -9 0 -4 42 7 63 9 15 48 2 44 -13z m1453
-62 c3 -16 3 -28 -2 -28 -17 0 -32 25 -32 54 0 26 2 28 14 16 7 -8 16 -27 20
-42z m-214 -23 c15 -13 23 -14 39 -5 12 6 21 18 21 27 0 35 18 -4 35 -77 27
-116 29 -120 69 -120 19 0 37 -6 40 -12 6 -13 0 16 -10 52 -5 18 -2 20 20 14
30 -7 31 -3 11 37 -10 19 -13 35 -7 46 12 20 22 6 39 -52 l11 -40 1 33 c1 48
16 39 30 -20 8 -29 19 -71 26 -93 7 -22 16 -66 20 -97 6 -54 5 -56 -14 -51
-12 3 -21 9 -21 14 0 5 -11 15 -25 21 -18 8 -22 14 -15 24 8 8 5 24 -11 53
-18 35 -23 39 -41 30 -15 -8 -25 -6 -45 6 -50 33 -41 -10 10 -49 21 -15 30
-17 39 -8 19 19 27 14 25 -15 -2 -21 -8 -29 -25 -31 -12 -2 -22 -8 -22 -13 0
-5 -4 -9 -10 -9 -5 0 -10 7 -10 16 0 9 -6 14 -12 12 -21 -7 -29 -59 -36 -222
-2 -28 -6 -37 -16 -33 -17 7 -51 -28 -41 -42 3 -6 1 -11 -4 -11 -6 0 -11 16
-11 35 0 29 5 37 25 45 26 10 35 52 14 66 -8 5 -8 9 1 14 10 6 8 14 -8 30 -16
17 -19 30 -15 53 6 27 4 30 -15 25 -12 -4 -22 -2 -22 3 0 5 4 9 10 9 5 0 7 26
3 64 -5 51 -3 64 8 63 21 -3 22 3 14 61 -7 53 -17 64 -33 36 -7 -13 -12 -9
-25 19 -10 19 -14 42 -11 50 4 11 -2 16 -17 19 -13 2 -30 16 -39 31 -14 26
-14 29 5 43 19 14 20 13 23 -9 2 -14 11 -32 22 -42z m267 -2 c-3 -10 -5 -2 -5
17 0 19 2 27 5 18 2 -10 2 -26 0 -35z m-427 -53 c0 -5 -4 -10 -10 -10 -5 0
-10 5 -10 10 0 6 5 10 10 10 6 0 10 -4 10 -10z m-1104 -38 c-10 -10 -29 15
-21 28 6 9 10 8 17 -4 6 -10 7 -20 4 -24z m2285 9 c28 18 40 11 27 -16 -6 -14
-15 -25 -19 -25 -4 0 -20 -11 -36 -24 -16 -14 -42 -28 -58 -32 -26 -7 -28 -5
-21 20 4 15 21 43 39 61 26 28 34 32 43 20 7 -9 15 -11 25 -4z m-1241 -31 c0
-5 -7 -10 -16 -10 -8 0 -12 5 -9 10 3 6 10 10 16 10 5 0 9 -4 9 -10z m272 -55
c3 -13 1 -22 -3 -19 -9 5 -13 44 -5 44 2 0 6 -11 8 -25z m335 -77 c-3 -8 -6
-5 -6 6 -1 11 2 17 5 13 3 -3 4 -12 1 -19z m-1593 -38 c-23 -23 -65 -30 -71
-12 -3 7 3 12 14 12 10 0 29 6 43 13 32 18 39 12 14 -13z m291 -10 c3 -5 -3
-10 -14 -10 -12 0 -21 5 -21 10 0 6 6 10 14 10 8 0 18 -4 21 -10z m1465 6 c0
-3 -4 -8 -10 -11 -5 -3 -10 -1 -10 4 0 6 5 11 10 11 6 0 10 -2 10 -4z m-1728
-38 c-7 -7 -12 -8 -12 -2 0 14 12 26 19 19 2 -3 -1 -11 -7 -17z m118 12 c0 -5
-2 -10 -4 -10 -3 0 -8 5 -11 10 -3 6 -1 10 4 10 6 0 11 -4 11 -10z m1470 -31
c0 -10 -4 -19 -10 -19 -5 0 -10 12 -10 26 0 14 4 23 10 19 6 -3 10 -15 10 -26z
m-1559 -2 c30 -7 66 -20 80 -29 20 -15 22 -19 9 -27 -19 -14 -57 -14 -65 -1
-3 6 -20 10 -37 10 -33 0 -68 24 -68 47 0 15 7 15 81 0z m309 -16 c0 -17 -29
-33 -50 -26 -37 12 -20 33 28 34 12 1 22 -3 22 -8z m-83 -48 c0 -7 -6 -13 -14
-13 -17 0 -17 -15 2 -30 8 -7 15 -17 15 -22 0 -6 -7 -5 -15 2 -9 7 -31 13 -49
12 -22 -1 -40 6 -51 18 -21 23 -13 39 10 20 15 -12 29 -8 31 11 2 14 2 14 37
15 22 0 34 -4 34 -13z m-202 -63 c3 -5 1 -10 -4 -10 -6 0 -11 5 -11 10 0 6 2
10 4 10 3 0 8 -4 11 -10z m1779 1 c6 -10 -33 -20 -52 -13 -7 2 -10 8 -6 13 7
12 51 12 58 0z m-1458 -41 c2 0 4 -7 4 -16 0 -18 -35 -11 -62 14 -29 25 -20
33 18 17 20 -8 38 -15 40 -15z m49 -10 c3 -5 1 -10 -4 -10 -6 0 -11 5 -11 10
0 6 2 10 4 10 3 0 8 -4 11 -10z m-355 -31 c0 -5 -4 -9 -10 -9 -5 0 -10 7 -10
16 0 8 5 12 10 9 6 -3 10 -10 10 -16z m1323 7 c14 -11 16 -19 9 -33 -6 -10
-14 -29 -20 -43 -9 -24 -10 -23 -16 15 -4 22 -11 48 -17 58 -7 13 -5 17 8 17
10 0 26 -7 36 -14z m-91 -65 c-5 -3 -12 -13 -15 -21 -4 -12 -6 -11 -6 3 -1 10
4 28 11 40 11 20 12 21 16 3 2 -10 0 -21 -6 -25z m-1068 -17 c4 -11 1 -14 -11
-12 -9 2 -18 9 -21 16 -6 18 25 15 32 -4z m526 6 c0 -5 -4 -10 -10 -10 -5 0
-10 5 -10 10 0 6 5 10 10 10 6 0 10 -4 10 -10z m509 -46 c3 -16 1 -17 -13 -5
-19 16 -21 34 -3 29 6 -3 14 -13 16 -24z m-1169 -29 c0 -8 -2 -15 -4 -15 -2 0
-6 7 -10 15 -3 8 -1 15 4 15 6 0 10 -7 10 -15z m80 5 c0 -5 -7 -7 -15 -4 -8 4
-15 8 -15 10 0 2 7 4 15 4 8 0 15 -4 15 -10z m1218 -2 c-6 -18 -28 -21 -28 -4
0 9 7 16 16 16 9 0 14 -5 12 -12z m-113 -7 c3 -5 1 -12 -5 -16 -5 -3 -10 1
-10 9 0 18 6 21 15 7z m-440 -31 c-6 -9 -9 -9 -16 1 -10 17 0 34 13 21 6 -6 7
-16 3 -22z m-120 0 c3 -5 1 -10 -4 -10 -6 0 -11 5 -11 10 0 6 2 10 4 10 3 0 8
-4 11 -10z m485 -5 c0 -8 -7 -15 -15 -15 -16 0 -20 12 -8 23 11 12 23 8 23 -8z
m176 4 c3 -6 -1 -18 -10 -27 -15 -15 -16 -14 -16 11 0 27 13 36 26 16z m-102
-108 c-8 -9 -13 6 -18 51 -6 66 8 71 16 6 3 -29 5 -55 2 -57z m-1149 79 c3
-11 15 -25 26 -31 16 -8 18 -13 9 -24 -6 -8 -18 -11 -26 -8 -17 6 -18 -14 -1
-50 16 -36 36 -34 44 3 6 35 18 46 29 28 4 -6 2 -14 -4 -16 -21 -7 -13 -31 8
-25 14 4 20 0 20 -11 0 -9 5 -16 10 -16 6 0 10 -9 10 -21 0 -11 9 -32 20 -46
26 -33 19 -40 -14 -16 -16 11 -25 28 -26 46 0 15 -4 27 -10 27 -13 0 -30 -34
-30 -59 0 -12 -5 -21 -12 -21 -16 0 -48 31 -48 47 0 7 -6 12 -12 11 -7 -2 -12
3 -10 11 2 8 -5 30 -14 50 -25 51 -18 141 11 141 8 0 17 -9 20 -20z m110 -30
c3 -5 2 -10 -4 -10 -5 0 -13 5 -16 10 -3 6 -2 10 4 10 5 0 13 -4 16 -10z m485
-25 l42 -35 -36 2 c-20 2 -36 8 -36 14 0 6 -7 17 -15 24 -17 14 -20 30 -6 30
5 0 28 -16 51 -35z m450 -35 c0 -5 -7 -10 -16 -10 -8 0 -12 5 -9 10 3 6 10 10
16 10 5 0 9 -4 9 -10z m-530 -10 c0 -5 -4 -10 -10 -10 -5 0 -10 5 -10 10 0 6
5 10 10 10 6 0 10 -4 10 -10z m140 -29 c0 -6 -4 -13 -10 -16 -5 -3 -10 1 -10
9 0 9 5 16 10 16 6 0 10 -4 10 -9z m455 -41 c-3 -11 -1 -29 5 -40 9 -16 8 -24
-5 -36 -8 -8 -15 -14 -16 -12 -11 48 -3 122 12 112 6 -3 7 -14 4 -24z m356 -2
c11 -21 11 -22 -4 -9 -10 7 -17 17 -17 22 0 15 9 10 21 -13z m59 12 c0 -5 -8
-10 -17 -10 -15 0 -16 2 -3 10 19 12 20 12 20 0z m-1530 -88 c0 -11 9 -27 20
-37 19 -18 20 -17 20 6 l1 24 17 -21 c10 -12 28 -25 41 -29 12 -3 26 -18 31
-31 10 -25 24 -31 35 -14 10 17 25 11 25 -10 0 -11 -7 -20 -15 -20 -9 0 -18
-7 -21 -15 -5 -11 -11 -12 -25 -4 -15 7 -19 6 -19 -5 0 -24 45 -49 72 -41 19
6 21 5 11 -6 -18 -18 -16 -39 6 -58 10 -9 20 -33 23 -53 4 -38 -1 -43 -38 -39
-15 2 -5 -56 12 -70 22 -18 17 -28 -21 -35 -26 -5 -35 -11 -35 -26 0 -16 -5
-19 -24 -14 -27 7 -45 -19 -26 -38 5 -5 10 -18 10 -28 0 -11 7 -18 18 -18 10
0 28 -14 40 -30 19 -25 27 -29 50 -24 15 4 30 11 33 17 10 14 -2 50 -20 64
-24 17 -8 24 38 17 30 -5 41 -11 41 -24 0 -10 3 -25 6 -33 4 -11 -5 -19 -30
-28 -35 -13 -50 -39 -22 -39 8 0 20 -17 26 -37 6 -21 16 -48 22 -60 6 -13 9
-26 5 -29 -9 -9 -98 36 -92 46 3 5 13 6 21 3 14 -5 14 -3 3 15 -8 12 -16 17
-20 11 -3 -5 -10 -9 -15 -8 -38 7 -16 -35 31 -57 34 -16 45 -37 25 -49 -5 -3
-10 -17 -10 -30 0 -13 5 -27 10 -30 6 -3 10 -1 10 4 0 6 4 11 9 11 5 0 7 -9 4
-20 -8 -32 5 -70 25 -70 11 0 23 -13 31 -33 11 -28 18 -33 37 -29 14 2 26 8
29 12 8 13 55 -2 55 -17 0 -8 -5 -11 -10 -8 -17 10 -70 -5 -70 -21 0 -8 9 -14
19 -14 11 0 34 -14 51 -32 18 -17 39 -32 48 -34 40 -4 79 -27 95 -53 23 -40
22 -53 -11 -84 -15 -15 -29 -39 -30 -53 -1 -15 -4 -29 -7 -32 -10 -10 -172
168 -177 196 -2 10 -11 16 -21 14 -18 -3 -24 23 -7 33 17 10 11 19 -18 33 -38
16 -119 131 -101 143 11 6 10 11 -3 26 -9 10 -18 25 -20 33 -2 8 -13 23 -25
33 -13 10 -23 23 -23 30 0 6 -9 29 -20 52 -11 24 -21 64 -21 93 -1 29 -6 52
-11 52 -5 0 -6 9 -3 20 3 11 2 20 -3 20 -5 0 -22 38 -37 85 -28 84 -28 86 -10
124 16 37 14 68 -5 56 -9 -6 -25 13 -18 21 8 7 68 -27 68 -38 0 -6 10 -8 25
-4 16 4 25 2 25 -5 0 -7 3 -10 6 -6 9 9 10 76 2 71 -5 -3 -8 -1 -8 5 0 6 -7 8
-15 5 -8 -4 -15 -12 -15 -20 0 -17 -30 -19 -31 -1 -1 6 -1 33 1 60 l2 47 -28
-10 c-16 -6 -34 -16 -40 -21 -8 -7 -15 -6 -20 2 -4 7 0 17 9 24 22 16 23 47 2
39 -11 -5 -15 2 -15 27 0 19 -3 58 -6 87 -5 36 -3 52 5 52 6 0 11 -8 11 -18z
m1580 -74 c0 -5 -7 -8 -15 -8 -11 0 -15 12 -15 48 l1 47 14 -40 c8 -22 15 -43
15 -47z m-1400 43 c0 -4 -6 -16 -14 -26 -12 -17 -13 -17 -18 6 -3 19 0 25 14
26 10 1 18 -2 18 -6z m930 -108 c0 -37 0 -37 -16 -15 -12 18 -13 26 -4 37 18
22 20 19 20 -22z m-629 0 c6 -29 5 -83 -1 -83 -10 0 -61 63 -55 68 2 3 12 -1
22 -9 15 -12 16 -12 11 3 -7 16 -1 28 14 28 4 0 9 -3 9 -7z m599 -99 l0 -47
-20 26 c-11 14 -20 28 -20 32 0 7 30 34 38 35 1 0 2 -21 2 -46z m30 30 c0 -8
-5 -12 -10 -9 -6 4 -8 11 -5 16 9 14 15 11 15 -7z m440 6 c0 -5 -7 -7 -16 -3
-9 3 -20 0 -24 -8 -5 -7 -12 -10 -17 -6 -9 10 16 27 40 27 9 0 17 -4 17 -10z
m20 -74 c0 -3 -4 -8 -10 -11 -5 -3 -10 -1 -10 4 0 6 5 11 10 11 6 0 10 -2 10
-4z m-1297 -106 c-6 -22 -21 -35 -29 -27 -7 7 15 47 25 47 5 0 7 -9 4 -20z
m-13 -54 c0 -2 -13 -19 -30 -37 -16 -19 -30 -37 -30 -41 0 -5 -6 -8 -14 -8 -8
0 -16 -5 -18 -12 -2 -6 -10 -8 -16 -4 -17 10 -15 29 2 23 8 -3 27 12 47 39 18
24 39 44 46 44 7 0 13 -2 13 -4z m1210 -62 c0 -19 -16 -18 -24 2 -11 27 -7 37
9 24 8 -7 15 -19 15 -26z m-800 6 c0 -5 -4 -10 -10 -10 -5 0 -10 5 -10 10 0 6
5 10 10 10 6 0 10 -4 10 -10z m-316 -76 c3 -8 2 -12 -4 -9 -6 3 -10 10 -10 16
0 14 7 11 14 -7z m1026 -8 c0 -2 -7 -7 -16 -10 -8 -3 -12 -2 -9 4 6 10 25 14
25 6z m-620 -110 c0 -21 -26 -43 -37 -32 -4 4 28 55 35 56 1 0 2 -11 2 -24z
m-240 -36 c0 -5 -2 -10 -4 -10 -3 0 -8 5 -11 10 -3 6 -1 10 4 10 6 0 11 -4 11
-10z m267 -42 c7 -6 10 -15 7 -20 -4 -6 -10 -5 -15 3 -7 11 -12 12 -29 2 -26
-17 -27 -17 -32 10 -4 21 -1 23 26 19 17 -3 37 -9 43 -14z m480 -24 c-3 -3
-25 -4 -48 -2 l-44 3 45 11 c39 9 62 3 47 -12z m-837 -13 c0 -6 -4 -13 -10
-16 -5 -3 -10 1 -10 9 0 9 5 16 10 16 6 0 10 -4 10 -9z m-97 -21 c8 -11 17
-17 21 -12 5 4 7 -2 5 -12 -6 -32 -26 -29 -43 5 -19 38 -19 39 -7 39 6 0 16
-9 24 -20z m104 -82 c-3 -8 -6 -5 -6 6 -1 11 2 17 5 13 3 -3 4 -12 1 -19z
m986 -40 c-13 -12 -25 -19 -29 -15 -10 10 16 37 34 37 13 0 12 -4 -5 -22z
m-1053 2 c0 -5 -4 -10 -10 -10 -5 0 -10 5 -10 10 0 6 5 10 10 10 6 0 10 -4 10
-10z m40 -15 c0 -8 -7 -15 -15 -15 -16 0 -20 12 -8 23 11 12 23 8 23 -8z m313
-71 c-4 -10 -9 -12 -15 -6 -12 12 -1 35 12 27 5 -3 6 -13 3 -21z m-123 12 c0
-11 -19 -15 -25 -6 -3 5 1 10 9 10 9 0 16 -2 16 -4z m149 -94 c0 -66 -11 -94
-30 -75 -18 18 -18 95 -1 116 24 28 30 20 31 -41z m-200 15 c13 -16 5 -27 -21
-27 -11 0 -18 7 -18 20 0 23 22 27 39 7z m145 -96 c3 -5 -1 -14 -9 -21 -13
-10 -15 -9 -15 9 0 21 14 28 24 12z m697 -117 c12 -14 11 -16 -5 -13 -11 2
-21 10 -24 17 -5 17 13 15 29 -4z m-910 -93 c0 -9 2 -26 5 -38 2 -12 0 -25 -6
-28 -15 -9 -30 30 -30 77 1 40 2 42 15 24 8 -11 15 -27 16 -35z m829 39 c0 -5
-5 -10 -11 -10 -5 0 -7 5 -4 10 3 6 8 10 11 10 2 0 4 -4 4 -10z m80 -129 c-11
-44 -28 -61 -40 -41 -4 7 2 21 16 35 13 13 24 32 24 41 0 10 3 15 6 12 3 -3 0
-24 -6 -47z m136 14 c-3 -8 -1 -27 5 -42 6 -18 6 -30 0 -36 -14 -14 -23 -4
-25 27 -1 21 -5 24 -24 19 -20 -5 -23 -2 -20 13 2 11 15 21 33 25 17 4 32 7
34 8 2 0 1 -6 -3 -14z m-66 -85 c-12 -22 -40 -27 -40 -7 0 19 10 27 32 27 16
0 17 -3 8 -20z m-59 -79 c-22 -22 -51 -28 -51 -11 0 5 9 14 20 20 11 6 20 18
20 27 0 16 1 16 16 1 15 -15 14 -18 -5 -37z m49 -30 c0 -13 -9 -21 -30 -26
-31 -7 -50 -1 -50 16 0 6 4 7 10 4 5 -3 20 1 32 9 29 21 38 20 38 -3z m-317
-177 c-9 -15 -19 -21 -21 -15 -4 13 16 41 29 41 5 0 2 -12 -8 -26z m-736 -66
c-3 -8 -6 -5 -6 6 -1 11 2 17 5 13 3 -3 4 -12 1 -19z m973 -72 c0 -18 -17 -29
-30 -21 -8 5 -7 11 1 21 15 18 29 18 29 0z m-110 -31 c-7 -9 -15 -13 -17 -11
-7 7 7 26 19 26 6 0 6 -6 -2 -15z m-73 -137 c-3 -8 -6 -5 -6 6 -1 11 2 17 5
13 3 -3 4 -12 1 -19z m-347 -88 c0 -5 -5 -10 -11 -10 -5 0 -7 5 -4 10 3 6 8
10 11 10 2 0 4 -4 4 -10z m-70 -70 c0 -5 -4 -10 -10 -10 -5 0 -10 5 -10 10 0
6 5 10 10 10 6 0 10 -4 10 -10z m420 -28 c0 -5 -16 -13 -35 -19 -39 -12 -49 2
-12 17 29 11 47 12 47 2z m-141 -80 c-27 -19 -40 -22 -37 -7 1 6 8 9 14 7 6
-1 17 5 24 13 7 9 15 13 18 10 3 -3 -5 -13 -19 -23z m-159 -56 c0 -3 -4 -8
-10 -11 -5 -3 -10 -1 -10 4 0 6 5 11 10 11 6 0 10 -2 10 -4z m-240 -120 c0
-11 -19 -15 -25 -6 -3 5 1 10 9 10 9 0 16 -2 16 -4z m70 -26 c0 -5 -5 -10 -11
-10 -5 0 -7 5 -4 10 3 6 8 10 11 10 2 0 4 -4 4 -10z m-88 -112 c-7 -7 -12 -8
-12 -2 0 14 12 26 19 19 2 -3 -1 -11 -7 -17z m317 -141 c13 -17 5 -27 -23 -27
-12 0 -16 -4 -11 -8 6 -4 10 -13 11 -19 1 -7 2 -19 3 -26 0 -8 11 -18 24 -24
l22 -10 -23 -7 c-27 -9 -75 1 -68 13 10 16 14 81 5 81 -5 0 -9 6 -9 14 0 26
50 35 69 13z m85 -189 c-3 -4 -29 -8 -57 -8 -38 0 -48 3 -37 10 18 12 101 10
94 -2z m-365 -63 c20 -20 5 -24 -93 -27 -49 -2 -81 -7 -83 -15 -4 -11 4 -15
60 -27 15 -4 27 -13 27 -21 0 -11 -12 -15 -49 -15 -44 0 -51 -3 -70 -32 -11
-18 -39 -60 -61 -92 -22 -33 -40 -64 -40 -68 0 -5 -10 -22 -22 -38 -17 -24
-29 -30 -60 -30 -40 0 -48 10 -23 30 16 14 21 60 5 60 -5 0 -23 -20 -39 -44
-42 -60 -115 -75 -118 -23 0 12 1 16 4 10 3 -7 11 -13 19 -13 11 0 12 4 2 19
-9 15 -9 25 2 48 11 22 14 25 17 10 6 -24 23 -11 23 17 0 13 7 29 15 36 13 11
15 7 15 -30 0 -49 17 -50 41 -3 19 39 46 66 53 55 3 -5 8 -28 12 -50 4 -23 10
-42 14 -42 8 0 30 46 30 63 0 7 8 17 18 23 10 6 19 26 20 43 1 20 -1 30 -8 26
-5 -3 -10 1 -10 10 0 9 6 15 13 13 13 -3 17 3 17 27 0 21 -34 19 -55 -4 -16
-19 -16 -21 4 -49 15 -22 17 -32 9 -40 -15 -15 -38 -16 -38 -2 0 6 7 10 15 10
8 0 15 5 15 10 0 13 -6 12 -54 -1 -27 -8 -41 -8 -49 0 -8 8 -8 11 1 11 7 0 12
7 12 15 0 8 -7 15 -15 15 -8 0 -15 -7 -15 -16 0 -11 -5 -14 -17 -9 -42 17 -53
17 -53 1 0 -9 -5 -16 -11 -16 -5 0 6 32 27 70 20 39 40 70 45 70 17 0 9 -35
-11 -53 -20 -17 -17 -47 5 -47 15 0 29 28 26 53 -2 16 8 21 36 18 6 -1 27 8
45 19 39 24 66 26 74 5 8 -19 24 -20 24 -1 0 22 18 30 80 37 72 9 151 1 169
-16z m180 16 c13 -8 11 -57 -5 -143 -6 -31 -28 -42 -56 -27 -16 9 -19 17 -13
45 5 27 3 34 -9 34 -10 0 -15 -8 -13 -22 2 -21 -1 -23 -43 -20 -47 4 -82 22
-42 22 21 0 26 9 23 38 -2 11 2 11 19 2 31 -17 70 -5 70 21 0 18 -2 19 -15 9
-12 -10 -21 -10 -45 0 -42 17 -38 34 8 28 20 -3 51 1 67 8 36 16 37 16 54 5z
m385 -5 c37 -8 69 -16 70 -18 41 -55 44 -68 16 -68 -19 0 -24 12 -23 48 1 8
-5 11 -14 8 -8 -3 -60 -6 -115 -6 -89 0 -99 -2 -96 -17 2 -14 15 -19 58 -21
30 -2 60 -8 68 -14 7 -6 26 -11 42 -10 20 0 30 -4 30 -14 0 -8 9 -14 20 -14
11 0 20 -4 20 -10 0 -5 -7 -7 -16 -3 -10 4 -20 0 -26 -10 -13 -25 -37 -21 -48
8 -9 23 -14 25 -74 25 -56 0 -66 -3 -71 -20 -4 -12 -15 -20 -30 -20 -19 0 -24
7 -29 45 -8 48 -25 57 -67 34 -19 -10 -20 -8 -13 28 8 48 11 50 34 36 14 -10
21 -9 30 2 8 9 37 15 83 18 40 1 74 4 77 5 3 1 36 -4 74 -12z m-320 -15 c16
-18 16 -20 -2 -38 -25 -23 -33 -69 -16 -84 8 -6 14 -17 14 -24 0 -7 7 -16 16
-19 10 -4 14 -14 10 -28 -4 -16 -2 -14 6 5 12 28 32 35 43 16 8 -11 -27 -49
-45 -49 -5 0 -10 -21 -10 -47 1 -46 1 -47 14 -24 8 14 11 31 8 39 -5 14 14 32
35 32 9 0 11 -13 6 -45 -4 -30 -2 -45 5 -45 6 0 16 -9 22 -20 10 -19 8 -20
-74 -20 l-84 0 3 113 c3 61 5 145 6 185 1 77 11 89 43 53z m684 -1 c68 -6 133
-15 145 -19 12 -5 42 -43 67 -85 35 -60 51 -78 73 -83 30 -6 53 -36 101 -132
15 -29 24 -57 19 -62 -12 -12 -185 8 -194 23 -7 11 -9 11 -9 0 0 -8 -9 -12
-22 -10 -21 3 -33 25 -92 173 -2 6 -9 5 -17 -2 -11 -11 -10 -22 5 -65 11 -29
25 -60 32 -69 8 -8 14 -21 14 -27 0 -17 -82 -15 -128 3 -32 13 -43 25 -65 76
-29 65 -33 89 -16 89 16 0 82 -71 100 -109 11 -22 19 -29 24 -21 8 13 -13 97
-26 106 -5 3 -9 14 -9 25 0 10 -5 19 -11 19 -6 0 -22 9 -36 20 -43 33 -163 25
-163 -11 0 -4 21 -11 46 -15 34 -5 44 -10 40 -21 -3 -8 -6 -19 -6 -25 0 -6
-12 -8 -31 -4 -37 7 -69 -8 -69 -33 0 -26 26 -46 43 -33 7 6 26 13 43 16 26 5
33 1 49 -27 10 -17 23 -35 28 -39 6 -3 -15 -9 -45 -13 -57 -7 -145 14 -160 38
-15 23 -8 92 12 117 25 32 25 36 -1 43 -16 4 -19 9 -11 24 6 10 17 41 25 69
l15 51 -25 -5 c-19 -4 -24 -1 -21 9 3 9 17 13 37 11 17 -1 31 3 31 9 0 7 15 9
43 5 23 -3 97 -10 165 -16z m-328 -45 c0 -8 -4 -15 -9 -15 -13 0 -22 16 -14
24 11 11 23 6 23 -9z m-600 -85 c8 -5 11 -10 5 -11 -5 -1 4 -5 20 -10 17 -4
52 -14 79 -22 70 -20 85 -60 39 -103 -23 -21 -25 -28 -15 -44 17 -28 16 -30
-17 -30 -20 0 -34 8 -45 25 -21 32 -44 32 -56 0 -11 -29 -36 -43 -52 -27 -6 6
-7 16 0 28 5 11 12 39 16 63 6 39 5 43 -9 31 -8 -7 -15 -10 -15 -7 0 3 -3 13
-7 23 -5 14 -2 16 16 11 19 -4 22 -2 18 12 -2 10 0 26 5 35 7 12 5 16 -12 16
-11 0 -20 -4 -20 -9 0 -5 -9 -11 -20 -14 -20 -5 -19 2 3 31 11 14 46 16 67 2z
m325 -10 c3 -5 -1 -10 -9 -10 -9 0 -16 5 -16 10 0 6 4 10 9 10 6 0 13 -4 16
-10z m-775 -32 c0 -13 -23 -5 -28 10 -2 7 2 10 12 6 9 -3 16 -11 16 -16z m969
-20 c13 1 31 8 39 15 13 10 15 9 9 -7 -4 -10 -2 -25 5 -33 10 -12 9 -15 -7
-13 -32 4 -33 2 -25 -34 7 -30 4 -38 -19 -60 -23 -22 -36 -26 -89 -26 l-62 0
0 90 c0 82 2 90 19 90 11 0 22 4 26 10 3 5 21 0 43 -12 20 -12 48 -21 61 -20z
m113 27 c0 -5 -5 -11 -11 -13 -6 -2 -11 4 -11 13 0 9 5 15 11 13 6 -2 11 -8
11 -13z m-790 -20 c11 11 56 -18 67 -42 9 -19 9 -34 1 -58 -13 -39 -40 -59
-94 -69 -69 -13 -96 41 -59 119 9 19 23 35 30 35 8 0 16 7 19 15 5 11 10 13
19 5 6 -5 14 -7 17 -5z m-365 -27 c-3 -8 -6 -5 -6 6 -1 11 2 17 5 13 3 -3 4
-12 1 -19z m1154 -30 c-4 -17 -11 -33 -18 -35 -16 -6 -27 48 -11 58 26 17 36
10 29 -23z m-1291 -7 c-10 -21 -30 -37 -30 -26 0 14 21 45 31 45 6 0 6 -7 -1
-19z m34 -36 c3 -9 0 -15 -9 -15 -8 0 -15 7 -15 15 0 8 4 15 9 15 5 0 11 -7
15 -15z m1248 -17 c16 -13 22 -29 19 -58 -1 -16 -51 -22 -51 -6 0 4 -6 6 -14
3 -8 -3 -20 1 -26 8 -10 12 -7 20 11 40 27 28 38 30 61 13z m-456 -45 c-11
-11 -19 6 -11 24 8 17 8 17 12 0 3 -10 2 -21 -1 -24z m-426 8 c0 -5 -7 -11
-15 -15 -15 -5 -20 5 -8 17 9 10 23 9 23 -2z m637 -84 c4 -5 0 -13 -10 -18
-21 -12 -22 -32 -2 -49 28 -23 17 -33 -30 -26 l-45 7 6 -45 c4 -25 4 -46 1
-46 -17 0 -99 42 -117 60 l-21 21 33 13 c18 8 36 17 40 21 7 7 -18 53 -37 68
-5 4 31 7 82 5 50 -2 95 -7 100 -11z m1061 -283 c23 -3 42 -9 42 -15 0 -5 -3
-8 -7 -8 -20 3 -27 -2 -14 -10 31 -20 -35 -35 -179 -41 l-145 -7 125 -1 c185
-3 137 -21 -63 -23 -92 -1 -170 1 -174 4 -3 4 1 7 10 7 9 0 17 3 17 8 0 9 49
8 -755 14 -368 2 -701 1 -740 -3 -63 -5 -58 -6 49 -8 66 0 117 -3 115 -5 -22
-21 -409 -12 -409 10 0 15 -31 27 -53 19 -8 -4 -18 -2 -22 4 -9 16 24 46 54
49 148 14 2037 20 2149 6z m-1438 -94 c0 -5 -6 -10 -14 -10 -8 0 -18 5 -21 10
-3 6 3 10 14 10 12 0 21 -4 21 -10z m306 -1 c3 -5 -31 -9 -75 -9 -45 0 -81 4
-81 9 0 12 149 11 156 0z m74 1 c0 -5 -15 -10 -32 -10 -25 0 -29 3 -18 10 20
13 50 13 50 0z m-714 -583 c2 -7 -11 -53 -29 -103 l-34 -89 -174 -5 -174 -5 0
-90 0 -90 138 -3 c100 -2 137 -6 136 -15 0 -7 -15 -50 -33 -97 l-32 -85 -104
-5 -105 -5 -3 -167 -2 -168 -145 0 -145 0 0 463 c0 255 3 467 7 470 3 4 161 7
350 7 275 0 345 -3 349 -13z m389 -457 l0 -465 -142 -3 -143 -3 0 464 c0 255
3 467 7 471 4 3 68 5 142 4 l136 -3 0 -465z m909 461 c7 -10 -49 -168 -66
-188 -8 -10 -54 -13 -180 -13 l-169 0 3 -92 3 -93 133 -3 c106 -2 132 -5 132
-17 0 -8 -14 -52 -31 -99 l-31 -85 -101 -3 -102 -3 -5 -165 -5 -165 -142 -3
-143 -3 0 464 c0 255 3 467 7 470 10 11 691 8 697 -2z m527 -66 c15 -38 51
-135 80 -215 28 -80 92 -255 140 -389 49 -134 89 -248 89 -252 0 -5 -63 -9
-139 -9 -154 0 -146 -3 -171 70 l-15 45 -164 0 -164 0 -19 -57 -20 -58 -139 0
c-76 0 -139 4 -139 8 0 9 302 843 325 899 l14 34 147 -3 148 -3 27 -70z"/>
<path d="M6170 8620 c0 -5 4 -10 9 -10 6 0 13 5 16 10 3 6 -1 10 -9 10 -9 0
-16 -4 -16 -10z"/>
<path d="M6285 8510 c3 -5 10 -10 16 -10 5 0 9 5 9 10 0 6 -7 10 -16 10 -8 0
-12 -4 -9 -10z"/>
<path d="M6190 8079 c0 -5 5 -7 10 -4 6 3 10 8 10 11 0 2 -4 4 -10 4 -5 0 -10
-5 -10 -11z"/>
<path d="M6237 8074 c-8 -8 1 -24 14 -24 5 0 9 7 9 15 0 15 -12 20 -23 9z"/>
<path d="M6176 8024 c-4 -11 -1 -14 11 -12 9 2 18 9 21 16 6 18 -25 15 -32 -4z"/>
<path d="M5166 7087 c3 -10 9 -15 12 -12 3 3 0 11 -7 18 -10 9 -11 8 -5 -6z"/>
<path d="M5120 6955 c0 -9 6 -12 15 -9 8 4 12 10 9 15 -8 14 -24 10 -24 -6z"/>
<path d="M5191 6894 c0 -11 3 -14 6 -6 3 7 2 16 -1 19 -3 4 -6 -2 -5 -13z"/>
<path d="M5240 6624 c0 -8 5 -12 10 -9 6 3 10 10 10 16 0 5 -4 9 -10 9 -5 0
-10 -7 -10 -16z"/>
<path d="M5390 4150 c-8 -5 -11 -12 -8 -16 10 -9 38 3 38 16 0 12 -10 13 -30
0z"/>
<path d="M5200 3844 c0 -8 5 -12 10 -9 6 3 10 10 10 16 0 5 -4 9 -10 9 -5 0
-10 -7 -10 -16z"/>
<path d="M6480 4144 c-19 -21 -1 -48 34 -52 33 -4 34 17 3 47 -22 20 -25 20
-37 5z"/>
<path d="M6760 4120 c0 -5 5 -10 10 -10 6 0 10 5 10 10 0 6 -4 10 -10 10 -5 0
-10 -4 -10 -10z"/>
<path d="M6790 4033 c0 -4 5 -15 10 -23 8 -13 10 -13 10 2 0 9 -4 20 -10 23
-5 3 -10 3 -10 -2z"/>
<path d="M6740 4020 c0 -5 5 -10 11 -10 5 0 7 5 4 10 -3 6 -8 10 -11 10 -2 0
-4 -4 -4 -10z"/>
<path d="M6804 3929 c-3 -5 5 -13 18 -18 24 -9 42 -5 33 8 -8 13 -44 20 -51
10z"/>
<path d="M5745 3950 c-9 -15 4 -30 26 -30 28 0 61 19 54 31 -8 12 -72 12 -80
-1z"/>
<path d="M6137 3963 c-10 -9 -8 -55 2 -71 5 -8 21 -12 37 -10 23 2 30 9 32 30
4 35 -49 74 -71 51z"/>
<path d="M5519 3929 c-11 -11 -19 -28 -17 -37 4 -23 39 -28 50 -8 5 9 15 16
23 16 22 0 27 17 9 34 -21 21 -40 20 -65 -5z"/>
<path d="M6310 3855 c0 -8 2 -15 4 -15 2 0 12 -3 21 -7 15 -5 16 -3 6 15 -13
25 -31 29 -31 7z"/>
<path d="M5098 3393 c7 -3 16 -2 19 1 4 3 -2 6 -13 5 -11 0 -14 -3 -6 -6z"/>
<path d="M6973 2365 c-35 -122 -47 -178 -39 -183 17 -14 199 -9 203 5 2 6 -17
80 -42 165 -25 84 -48 161 -51 171 -3 9 -9 17 -13 17 -4 0 -30 -79 -58 -175z"/>
<path d="M5426 9545 c4 -8 10 -15 15 -15 5 0 9 7 9 15 0 8 -7 15 -15 15 -9 0
-12 -6 -9 -15z"/>
<path d="M5681 9527 c-14 -18 -4 -27 30 -27 15 0 31 -5 34 -10 8 -13 25 -3 25
15 0 12 -8 16 -61 31 -9 2 -21 -2 -28 -9z"/>
<path d="M5813 9519 c-23 -8 -29 -20 -17 -32 7 -7 54 13 54 24 0 14 -14 17
-37 8z"/>
<path d="M5850 9479 c0 -4 7 -12 15 -19 12 -10 24 -10 60 0 25 7 45 16 45 21
0 4 -27 7 -60 6 -33 -1 -60 -5 -60 -8z"/>
<path d="M5235 9427 c-4 -10 -5 -21 -1 -24 10 -10 18 4 13 24 -4 17 -4 17 -12
0z"/>
<path d="M5360 9410 c0 -11 7 -20 15 -20 24 0 17 -20 -7 -21 -21 -1 -21 -2 -3
-6 29 -7 56 -34 72 -70 16 -39 33 -43 33 -8 0 14 -4 25 -10 25 -5 0 -10 6 -10
14 0 7 -6 19 -14 25 -8 7 -22 27 -31 46 -17 38 -45 47 -45 15z"/>
<path d="M6010 9420 c-24 -8 -23 -8 8 -9 17 -1 32 4 32 9 0 11 -5 11 -40 0z"/>
<path d="M6447 9423 c-16 -15 -6 -33 18 -33 27 0 32 9 13 28 -14 14 -22 15
-31 5z"/>
<path d="M6345 9380 c-8 -13 20 -24 41 -16 20 8 9 26 -16 26 -10 0 -22 -5 -25
-10z"/>
<path d="M5723 9349 c-23 -12 -53 -31 -67 -44 -14 -13 -34 -26 -45 -30 -10 -3
-25 -12 -31 -20 -14 -17 -60 -20 -60 -5 0 5 -9 14 -19 20 -17 9 -20 7 -19 -19
1 -31 31 -49 52 -32 6 5 25 8 42 8 30 0 88 33 112 66 7 9 21 17 30 17 9 0 30
14 45 30 33 35 20 38 -40 9z"/>
<path d="M6255 9330 c-3 -5 1 -10 9 -10 9 0 16 5 16 10 0 6 -4 10 -9 10 -6 0
-13 -4 -16 -10z"/>
<path d="M6523 9273 c-8 -20 20 -45 40 -37 9 3 17 14 17 24 0 23 -49 34 -57
13z"/>
<path d="M6760 9230 c0 -5 7 -10 15 -10 8 0 15 5 15 10 0 6 -7 10 -15 10 -8 0
-15 -4 -15 -10z"/>
<path d="M5985 9220 c-8 -13 13 -40 31 -40 21 0 17 28 -5 40 -14 7 -22 7 -26
0z"/>
<path d="M6390 9221 c0 -5 13 -11 30 -13 24 -4 27 -2 19 9 -13 15 -49 18 -49
4z"/>
<path d="M6510 9221 c0 -6 5 -11 11 -11 5 0 8 -4 5 -9 -8 -12 17 -61 32 -61
17 0 15 19 -3 26 -8 4 -15 14 -15 24 0 10 -7 23 -15 30 -10 9 -15 9 -15 1z"/>
<path d="M6132 9211 c2 -7 7 -12 11 -12 12 1 9 15 -3 20 -7 2 -11 -2 -8 -8z"/>
<path d="M5850 9187 c0 -10 12 -18 34 -22 23 -5 36 -14 39 -27 4 -14 11 -19
22 -14 9 3 28 6 42 6 18 0 24 5 21 18 -2 11 -11 16 -26 14 -15 -2 -22 2 -22
12 0 10 -8 15 -22 15 -13 -1 -38 2 -55 6 -27 6 -33 4 -33 -8z"/>
<path d="M5630 9170 c0 -5 18 -10 41 -10 24 0 38 4 34 10 -3 6 -22 10 -41 10
-19 0 -34 -4 -34 -10z"/>
<path d="M6790 9161 c0 -12 29 -35 36 -28 11 10 -5 37 -21 37 -8 0 -15 -4 -15
-9z"/>
<path d="M5630 9140 c0 -5 6 -10 13 -10 6 0 4 -5 -5 -11 -10 -5 -18 -19 -18
-31 0 -16 4 -19 23 -14 12 3 30 6 40 6 9 0 17 5 17 10 0 6 -6 10 -14 10 -8 0
-18 5 -22 11 -5 8 1 10 19 5 14 -3 29 -2 32 4 4 6 -6 10 -24 10 -16 0 -33 5
-36 10 -3 6 -10 10 -16 10 -5 0 -9 -4 -9 -10z"/>
<path d="M6594 9135 c-4 -9 -4 -18 -2 -21 9 -8 39 8 35 19 -6 18 -27 20 -33 2z"/>
<path d="M6045 9131 c-6 -11 9 -23 19 -14 9 9 7 23 -3 23 -6 0 -12 -4 -16 -9z"/>
<path d="M5743 9119 c-15 -5 -15 -7 5 -18 16 -8 28 -9 41 -1 11 5 31 10 45 10
14 0 26 3 26 8 0 8 -92 10 -117 1z"/>
<path d="M6686 9111 c-8 -12 11 -61 23 -61 17 0 21 17 11 44 -10 26 -24 33
-34 17z"/>
<path d="M6230 9075 c0 -8 9 -15 20 -15 11 0 20 7 20 15 0 8 -9 15 -20 15 -11
0 -20 -7 -20 -15z"/>
<path d="M6960 9080 c0 -5 5 -10 10 -10 6 0 10 5 10 10 0 6 -4 10 -10 10 -5 0
-10 -4 -10 -10z"/>
<path d="M6596 8998 c3 -13 13 -31 22 -41 14 -15 17 -16 30 -3 13 13 13 18 -2
40 -22 34 -60 36 -50 4z"/>
<path d="M6680 9005 c0 -21 39 -40 53 -26 8 8 5 15 -9 26 -25 19 -44 19 -44 0z"/>
<path d="M6982 9004 c1 -9 9 -19 16 -22 9 -3 13 2 10 14 -1 9 -9 19 -16 22 -9
3 -13 -2 -10 -14z"/>
<path d="M6692 8952 c-20 -6 -14 -28 11 -39 25 -11 47 -7 47 10 0 14 -41 35
-58 29z"/>
<path d="M6715 8857 c-9 -21 14 -82 26 -70 5 5 2 26 -6 48 -10 31 -15 36 -20
22z"/>
<path d="M7020 8851 c0 -10 7 -24 15 -31 16 -13 18 -8 9 28 -8 27 -24 29 -24
3z"/>
<path d="M6770 8831 c6 -12 13 -51 15 -88 5 -72 7 -78 28 -70 11 4 13 18 10
54 -10 97 -17 118 -42 121 -20 3 -21 1 -11 -17z"/>
<path d="M7065 8790 c3 -5 8 -10 11 -10 2 0 4 5 4 10 0 6 -5 10 -11 10 -5 0
-7 -4 -4 -10z"/>
<path d="M5465 8650 c-3 -6 -9 -36 -12 -68 -3 -33 -13 -65 -23 -77 -27 -31
-54 -154 -41 -189 16 -40 13 -92 -5 -128 -10 -19 -14 -44 -11 -64 4 -24 0 -40
-14 -59 -23 -28 -56 -33 -65 -10 -4 8 -13 15 -22 15 -13 0 -12 -3 3 -20 10
-11 30 -20 45 -20 30 0 81 23 82 36 0 5 5 18 11 29 18 32 24 173 12 262 -6 41
-4 58 9 77 9 14 16 35 16 46 0 11 6 23 14 26 8 3 17 22 21 42 4 20 11 39 16
42 11 7 -4 63 -18 67 -6 2 -14 -1 -18 -7z"/>
<path d="M6890 8635 c7 -8 19 -15 27 -15 13 0 13 3 3 15 -7 8 -19 15 -27 15
-13 0 -13 -3 -3 -15z"/>
<path d="M7015 8620 c3 -5 8 -10 11 -10 2 0 4 5 4 10 0 6 -5 10 -11 10 -5 0
-7 -4 -4 -10z"/>
<path d="M6840 8502 c0 -5 9 -17 20 -27 22 -20 26 -9 6 18 -14 18 -26 22 -26
9z"/>
<path d="M6919 8429 c13 -11 26 -17 29 -14 8 8 -20 35 -37 35 -12 -1 -11 -5 8
-21z"/>
<path d="M7230 8370 c-8 -5 -12 -11 -9 -14 2 -3 11 -1 19 4 8 5 12 11 9 14 -2
3 -11 1 -19 -4z"/>
<path d="M6786 8312 c-5 -15 -2 -27 9 -38 24 -24 31 -9 13 29 -14 31 -15 31
-22 9z"/>
<path d="M6705 8160 c-3 -5 1 -10 9 -10 9 0 16 5 16 10 0 6 -4 10 -9 10 -6 0
-13 -4 -16 -10z"/>
<path d="M6784 8159 c-7 -11 26 -40 38 -33 13 8 9 19 -12 31 -13 9 -21 9 -26
2z"/>
<path d="M6675 8140 c3 -5 8 -10 11 -10 2 0 4 5 4 10 0 6 -5 10 -11 10 -5 0
-7 -4 -4 -10z"/>
<path d="M5870 8070 c0 -5 4 -10 9 -10 6 0 13 5 16 10 3 6 -1 10 -9 10 -9 0
-16 -4 -16 -10z"/>
<path d="M5777 8000 c-3 -11 -1 -20 4 -20 5 0 9 9 9 20 0 11 -2 20 -4 20 -2 0
-6 -9 -9 -20z"/>
<path d="M7132 7970 c-12 -12 -22 -26 -22 -33 0 -6 12 1 27 15 32 32 27 47 -5
18z"/>
<path d="M7027 7909 c-9 -6 -17 -18 -17 -28 0 -9 -10 -27 -22 -38 -13 -11 -28
-29 -34 -39 -11 -18 -13 -18 -37 9 -14 15 -29 27 -34 27 -4 0 -2 -5 5 -12 9
-9 9 -15 -2 -27 -17 -19 -46 -114 -46 -149 0 -15 7 -26 20 -29 11 -3 18 -8 16
-12 -3 -4 -1 -13 4 -21 12 -20 43 -2 50 29 6 27 22 29 31 4 7 -16 8 -15 8 4 1
12 -3 25 -9 28 -5 3 -10 14 -10 23 0 22 34 86 60 112 11 11 20 31 20 44 0 14
7 31 15 40 27 27 14 52 -18 35z"/>
<path d="M6420 7906 c0 -2 7 -9 15 -16 13 -11 14 -10 9 4 -5 14 -24 23 -24 12z"/>
<path d="M5790 7817 c1 -21 56 -81 64 -69 4 7 2 12 -3 12 -6 0 -11 11 -11 23
0 16 -9 28 -25 35 -19 9 -25 9 -25 -1z"/>
<path d="M7150 7719 c0 -9 -8 -27 -18 -40 -16 -21 -42 -92 -42 -115 0 -4 10 3
23 16 12 14 22 28 22 31 0 4 3 11 8 15 4 4 7 19 7 34 0 14 4 30 10 36 6 6 6
15 0 24 -8 13 -10 13 -10 -1z"/>
<path d="M5830 7701 c0 -6 9 -15 20 -21 11 -6 20 -20 20 -30 0 -12 7 -20 16
-20 26 0 12 39 -23 61 -18 12 -33 16 -33 10z"/>
<path d="M6635 7682 c-5 -4 -16 -17 -23 -29 -10 -19 -10 -27 0 -43 7 -11 16
-20 19 -20 12 0 21 34 10 38 -5 2 -7 10 -4 18 3 7 9 11 14 8 5 -3 9 4 9 15 0
22 -8 26 -25 13z"/>
<path d="M6045 7670 c3 -5 11 -10 16 -10 6 0 7 5 4 10 -3 6 -11 10 -16 10 -6
0 -7 -4 -4 -10z"/>
<path d="M6720 7629 c0 -11 5 -17 10 -14 6 3 10 13 10 21 0 8 -4 14 -10 14 -5
0 -10 -9 -10 -21z"/>
<path d="M6785 7640 c-3 -5 -1 -10 4 -10 6 0 11 5 11 10 0 6 -2 10 -4 10 -3 0
-8 -4 -11 -10z"/>
<path d="M6400 7590 c0 -5 7 -10 16 -10 8 0 12 5 9 10 -3 6 -10 10 -16 10 -5
0 -9 -4 -9 -10z"/>
<path d="M6800 7566 c0 -9 5 -16 10 -16 6 0 10 4 10 9 0 6 -4 13 -10 16 -5 3
-10 -1 -10 -9z"/>
<path d="M6460 7562 c0 -12 19 -26 26 -19 2 2 -2 10 -11 17 -9 8 -15 8 -15 2z"/>
<path d="M6550 7496 c0 -7 11 -16 25 -18 21 -4 23 -3 14 13 -11 22 -39 25 -39
5z"/>
<path d="M6735 7490 c-3 -5 1 -10 10 -10 9 0 13 5 10 10 -3 6 -8 10 -10 10 -2
0 -7 -4 -10 -10z"/>
<path d="M6760 7460 c0 -5 7 -10 16 -10 8 0 12 5 9 10 -3 6 -10 10 -16 10 -5
0 -9 -4 -9 -10z"/>
<path d="M7021 7362 c-7 -13 -11 -26 -8 -28 8 -8 29 25 25 38 -3 8 -9 4 -17
-10z"/>
<path d="M5925 7331 c-3 -5 -1 -12 4 -15 13 -8 42 4 35 15 -7 12 -31 12 -39 0z"/>
<path d="M6989 7292 c-6 -17 -28 -42 -50 -56 -40 -27 -47 -40 -27 -52 6 -4 21
4 35 20 16 19 29 25 43 21 11 -4 20 -2 20 3 0 6 -5 12 -12 14 -8 3 -7 13 4 36
10 19 12 34 7 38 -5 3 -14 -8 -20 -24z"/>
<path d="M5940 7255 c0 -8 5 -15 10 -15 6 0 10 -13 10 -30 0 -31 14 -41 23
-16 7 18 -3 59 -17 68 -17 12 -26 9 -26 -7z"/>
<path d="M5680 7236 c0 -8 5 -18 10 -21 6 -3 10 3 10 14 0 12 -4 21 -10 21 -5
0 -10 -6 -10 -14z"/>
<path d="M5762 7229 c2 -6 8 -10 13 -10 5 0 11 4 13 10 2 6 -4 11 -13 11 -9 0
-15 -5 -13 -11z"/>
<path d="M6229 7205 c-4 -5 -12 -37 -19 -70 -7 -33 -17 -65 -22 -72 -10 -13
-3 -33 13 -33 5 0 9 10 10 23 0 12 6 38 14 57 l13 35 7 -27 c4 -15 4 -36 0
-47 -9 -31 14 -26 25 5 17 43 12 82 -9 89 -11 3 -21 16 -23 28 -2 12 -6 18 -9
12z"/>
<path d="M5990 7159 c0 -5 5 -7 10 -4 6 3 10 8 10 11 0 2 -4 4 -10 4 -5 0 -10
-5 -10 -11z"/>
<path d="M6800 7146 c0 -15 18 -31 26 -23 7 7 -7 37 -17 37 -5 0 -9 -6 -9 -14z"/>
<path d="M5990 7111 c0 -5 5 -13 10 -16 6 -3 10 -2 10 4 0 5 -4 13 -10 16 -5
3 -10 2 -10 -4z"/>
<path d="M6881 7104 c0 -11 3 -14 6 -6 3 7 2 16 -1 19 -3 4 -6 -2 -5 -13z"/>
<path d="M6232 6960 c0 -19 2 -27 5 -17 2 9 2 25 0 35 -3 9 -5 1 -5 -18z"/>
<path d="M6267 6937 c-13 -13 -16 -22 -9 -29 7 -7 14 -3 22 11 16 31 9 40 -13
18z"/>
<path d="M6846 6914 c-9 -23 -8 -24 14 -24 23 0 26 13 6 29 -11 9 -15 8 -20
-5z"/>
<path d="M6210 6891 c-22 -43 -4 -99 23 -72 9 9 9 14 -2 20 -10 7 -10 13 -2
29 6 11 11 25 11 31 0 18 -19 12 -30 -8z"/>
<path d="M6090 6775 c0 -17 5 -25 13 -22 6 2 12 12 12 22 0 10 -6 20 -12 23
-8 2 -13 -6 -13 -23z"/>
<path d="M5831 6743 c1 -14 57 -54 63 -45 9 14 -24 52 -45 52 -10 0 -19 -3
-18 -7z"/>
<path d="M6563 6724 c-6 -14 -7 -26 -2 -30 5 -3 9 2 9 10 0 18 16 21 25 6 3
-5 10 -10 16 -10 17 0 9 17 -14 33 -21 14 -23 13 -34 -9z"/>
<path d="M6092 6718 c-7 -7 -12 -18 -12 -26 0 -12 3 -12 16 -1 13 10 17 10 26
-2 8 -11 9 -10 4 4 -3 10 -6 23 -6 28 0 13 -14 11 -28 -3z"/>
<path d="M6780 6704 c1 -16 29 -60 29 -44 0 8 -6 24 -14 34 -8 11 -15 16 -15
10z"/>
<path d="M6142 6658 c-5 -7 -15 -33 -22 -57 -12 -47 -2 -73 19 -47 16 19 41
102 34 110 -10 9 -20 7 -31 -6z"/>
<path d="M6080 6634 c0 -8 5 -12 10 -9 6 3 10 10 10 16 0 5 -4 9 -10 9 -5 0
-10 -7 -10 -16z"/>
<path d="M5871 6604 c0 -11 3 -14 6 -6 3 7 2 16 -1 19 -3 4 -6 -2 -5 -13z"/>
<path d="M6001 6564 c0 -11 3 -14 6 -6 3 7 2 16 -1 19 -3 4 -6 -2 -5 -13z"/>
<path d="M6003 6495 c0 -22 2 -30 4 -17 2 12 2 30 0 40 -3 9 -5 -1 -4 -23z"/>
<path d="M6730 6434 c0 -8 5 -12 10 -9 6 3 10 10 10 16 0 5 -4 9 -10 9 -5 0
-10 -7 -10 -16z"/>
<path d="M6055 6400 c-3 -5 -1 -10 4 -10 6 0 11 5 11 10 0 6 -2 10 -4 10 -3 0
-8 -4 -11 -10z"/>
<path d="M6696 6374 c-17 -12 -17 -14 -4 -14 9 0 20 5 23 11 11 17 2 18 -19 3z"/>
<path d="M5987 6303 c-20 -42 -34 -79 -31 -82 4 -3 9 0 11 7 3 6 12 12 20 12
11 0 14 7 11 25 -3 14 -1 25 3 25 12 0 50 76 42 84 -13 12 -19 4 -56 -71z"/>
<path d="M6077 6373 c-4 -3 -7 -13 -7 -22 1 -13 3 -13 11 2 11 19 8 33 -4 20z"/>
<path d="M6665 6331 c-6 -10 6 -51 15 -51 4 0 14 8 23 18 14 16 14 18 -9 29
-13 6 -26 8 -29 4z"/>
<path d="M6567 6263 c-2 -4 -1 -17 3 -28 7 -19 8 -19 15 -2 8 18 -9 46 -18 30z"/>
<path d="M6490 6210 c0 -5 5 -10 10 -10 6 0 10 5 10 10 0 6 -4 10 -10 10 -5 0
-10 -4 -10 -10z"/>
<path d="M6582 6177 c-13 -14 -19 -27 -15 -30 11 -7 45 31 41 44 -2 6 -14 -1
-26 -14z"/>
<path d="M6660 6165 c0 -8 7 -15 15 -15 9 0 12 6 9 15 -4 8 -10 15 -15 15 -5
0 -9 -7 -9 -15z"/>
<path d="M6611 6143 c28 -35 54 -52 64 -42 12 12 -37 59 -62 59 -13 0 -14 -2
-2 -17z"/>
<path d="M6557 6114 c-11 -11 -8 -49 5 -62 9 -9 9 -12 0 -12 -14 0 -16 -36 -2
-45 6 -3 10 5 10 19 0 14 7 29 15 33 11 6 12 16 7 38 -8 29 -23 41 -35 29z"/>
<path d="M5920 6070 c0 -5 4 -10 9 -10 6 0 13 5 16 10 3 6 -1 10 -9 10 -9 0
-16 -4 -16 -10z"/>
<path d="M6627 6057 c-3 -8 -2 -20 3 -27 6 -10 11 -8 19 8 14 27 14 32 -3 32
-8 0 -16 -6 -19 -13z"/>
<path d="M5900 6039 c0 -5 5 -7 10 -4 6 3 10 8 10 11 0 2 -4 4 -10 4 -5 0 -10
-5 -10 -11z"/>
<path d="M6592 5973 c2 -17 10 -29 21 -31 13 -3 17 3 17 27 0 25 -4 31 -21 31
-16 0 -20 -5 -17 -27z"/>
<path d="M5866 5941 c-4 -7 -5 -15 -2 -18 9 -9 19 4 14 18 -4 11 -6 11 -12 0z"/>
<path d="M6482 5104 c4 -21 22 -23 26 -1 2 10 -3 17 -13 17 -10 0 -15 -6 -13
-16z"/>
<path d="M6441 5094 c0 -11 3 -14 6 -6 3 7 2 16 -1 19 -3 4 -6 -2 -5 -13z"/>
<path d="M6452 4994 c1 -9 9 -19 16 -22 9 -3 13 2 10 14 -1 9 -9 19 -16 22 -9
3 -13 -2 -10 -14z"/>
<path d="M6385 4991 c-3 -5 -1 -12 5 -16 5 -3 10 1 10 9 0 18 -6 21 -15 7z"/>
<path d="M6304 4936 c-7 -28 12 -69 29 -63 21 6 32 54 17 71 -18 23 -39 19
-46 -8z"/>
<path d="M6340 4831 c0 -5 5 -13 10 -16 6 -3 10 -2 10 4 0 5 -4 13 -10 16 -5
3 -10 2 -10 -4z"/>
<path d="M6130 4815 c-7 -9 -11 -18 -8 -20 3 -3 11 1 18 10 7 9 11 18 8 20 -3
3 -11 -1 -18 -10z"/>
<path d="M6070 4771 c-6 -12 -7 -21 -1 -21 10 0 24 30 17 37 -2 3 -9 -5 -16
-16z"/>
<path d="M6512 4713 c-5 -15 -20 -38 -31 -51 -22 -22 -21 -42 3 -42 13 0 53
106 44 116 -3 3 -10 -8 -16 -23z"/>
<path d="M5960 4690 c-9 -6 -10 -10 -3 -10 6 0 15 5 18 10 8 12 4 12 -15 0z"/>
<path d="M6120 4630 c0 -5 5 -10 11 -10 5 0 7 5 4 10 -3 6 -8 10 -11 10 -2 0
-4 -4 -4 -10z"/>
<path d="M6090 4540 c-14 -4 -37 -5 -51 -3 -15 3 -39 -2 -55 -11 l-29 -15 53
-1 c46 0 112 21 112 35 0 3 -1 5 -2 4 -2 -1 -14 -4 -28 -9z"/>
<path d="M6470 4530 c0 -5 5 -10 10 -10 6 0 10 5 10 10 0 6 -4 10 -10 10 -5 0
-10 -4 -10 -10z"/>
<path d="M5913 4504 c-8 -22 5 -30 23 -12 14 14 14 16 -1 21 -9 4 -18 1 -22
-9z"/>
<path d="M6128 4508 c-10 -6 -10 -10 2 -18 19 -13 52 -9 57 6 5 14 -41 24 -59
12z"/>
<path d="M9034 1335 c-11 -27 5 -46 61 -71 30 -14 55 -27 55 -30 0 -2 -27 -17
-61 -34 -49 -25 -60 -35 -57 -53 3 -21 8 -22 81 -22 83 0 112 18 37 23 -64 5
-68 16 -13 42 78 36 78 47 0 87 l-52 27 52 6 c28 3 55 8 58 12 18 18 -13 28
-81 28 -57 0 -76 -4 -80 -15z"/>
<path d="M9030 1010 c0 -61 3 -81 13 -78 6 3 13 16 15 31 3 25 7 26 65 29 49
2 62 6 65 21 3 15 -5 17 -62 17 -63 0 -65 1 -68 27 -2 14 -9 28 -15 31 -10 3
-13 -17 -13 -78z"/>
</g>
</svg>
